<svg id="visual" viewBox="0 0 900 600" width="900" height="600" xmlns="http://www.w3.org/2000/svg" xmlns:xlink="http://www.w3.org/1999/xlink" version="1.1"><rect x="0" y="0" width="900" height="600" fill="#a662c9"></rect><path d="M597 0L598 0L598 86L575 86L575 171L453 171L453 257L465 257L465 343L569 343L569 429L536 429L536 514L491 514L491 600L0 600L0 514L0 514L0 429L0 429L0 343L0 343L0 257L0 257L0 171L0 171L0 86L0 86L0 0L0 0Z" fill="#528acc"></path><path d="M494 0L413 0L413 86L418 86L418 171L488 171L488 257L442 257L442 343L472 343L472 429L456 429L456 514L410 514L410 600L0 600L0 514L0 514L0 429L0 429L0 343L0 343L0 257L0 257L0 171L0 171L0 86L0 86L0 0L0 0Z" fill="#7282cf"></path><path d="M338 0L342 0L342 86L381 86L381 171L342 171L342 257L401 257L401 343L304 343L304 429L404 429L404 514L349 514L349 600L0 600L0 514L0 514L0 429L0 429L0 343L0 343L0 257L0 257L0 171L0 171L0 86L0 86L0 0L0 0Z" fill="#9477cb"></path><path d="M322 0L309 0L309 86L336 86L336 171L316 171L316 257L323 257L323 343L333 343L333 429L260 429L260 514L254 514L254 600L0 600L0 514L0 514L0 429L0 429L0 343L0 343L0 257L0 257L0 171L0 171L0 86L0 86L0 0L0 0Z" fill="#b469bd"></path><path d="M162 0L209 0L209 86L237 86L237 171L180 171L180 257L204 257L204 343L199 343L199 429L155 429L155 514L157 514L157 600L0 600L0 514L0 514L0 429L0 429L0 343L0 343L0 257L0 257L0 171L0 171L0 86L0 86L0 0L0 0Z" fill="#ce58a7"></path><path d="M115 0L88 0L88 86L149 86L149 171L103 171L103 257L114 257L114 343L155 343L155 429L148 429L148 514L124 514L124 600L0 600L0 514L0 514L0 429L0 429L0 343L0 343L0 257L0 257L0 171L0 171L0 86L0 86L0 0L0 0Z" fill="#e14989"></path></svg>