<!DOCTYPE svg PUBLIC "-//W3C//DTD SVG 1.1//EN" "http://www.w3.org/Graphics/SVG/1.1/DTD/svg11.dtd">

<!-- Uploaded to: SVG Repo, www.svgrepo.com, Transformed by: SVG Repo Mixer Tools -->
<svg fill="#ffffff" width="800px" height="800px" viewBox="-8 -8 48.00 48.00" version="1.1" xmlns="http://www.w3.org/2000/svg" >

<g id="SVGRepo_bgCarrier" strokeWidth="0">

<path transform="translate(-8, -8), scale(3)" fill="#000000" d="M9.166.33a2.25 2.25 0 00-2.332 0l-5.25 3.182A2.25 2.25 0 00.5 5.436v5.128a2.25 2.25 0 001.084 1.924l5.25 3.182a2.25 2.25 0 002.332 0l5.25-3.182a2.25 2.25 0 001.084-1.924V5.436a2.25 2.25 0 00-1.084-1.924L9.166.33z" strokewidth="0"/>

</g>

<g id="SVGRepo_tracerCarrier" strokeLinecap="round" strokeLinejoin="round"/>

<g id="SVGRepo_iconCarrier"> <title>html5</title> <path d="M11.677 13.196l-0.289-3.387 12.536 0.004 0.287-3.268-16.421-0.004 0.87 9.983h11.374l-0.406 4.27-3.627 1.002-3.683-1.009-0.234-2.63h-3.252l0.411 5.198 6.757 1.807 6.704-1.798 0.927-10.166h-11.954zM2.914 1.045h26.172l-2.38 26.874-10.734 3.037-10.673-3.038z"/> </g>

</svg>