<svg id="visual" viewBox="0 0 900 600" width="900" height="600" xmlns="http://www.w3.org/2000/svg" xmlns:xlink="http://www.w3.org/1999/xlink" version="1.1"><path d="M0 37L113 37L113 43L225 43L225 67L338 67L338 61L450 61L450 79L563 79L563 49L675 49L675 55L788 55L788 61L900 61L900 67L900 0L900 0L788 0L788 0L675 0L675 0L563 0L563 0L450 0L450 0L338 0L338 0L225 0L225 0L113 0L113 0L0 0Z" fill="#ffe4e1"></path><path d="M0 115L113 115L113 121L225 121L225 103L338 103L338 139L450 139L450 145L563 145L563 91L675 91L675 127L788 127L788 91L900 91L900 109L900 65L900 59L788 59L788 53L675 53L675 47L563 47L563 77L450 77L450 59L338 59L338 65L225 65L225 41L113 41L113 35L0 35Z" fill="#fed9dd"></path><path d="M0 151L113 151L113 145L225 145L225 133L338 133L338 187L450 187L450 187L563 187L563 121L675 121L675 151L788 151L788 127L900 127L900 145L900 107L900 89L788 89L788 125L675 125L675 89L563 89L563 143L450 143L450 137L338 137L338 101L225 101L225 119L113 119L113 113L0 113Z" fill="#facfdd"></path><path d="M0 181L113 181L113 211L225 211L225 193L338 193L338 229L450 229L450 241L563 241L563 163L675 163L675 199L788 199L788 193L900 193L900 193L900 143L900 125L788 125L788 149L675 149L675 119L563 119L563 185L450 185L450 185L338 185L338 131L225 131L225 143L113 143L113 149L0 149Z" fill="#f1c6e1"></path><path d="M0 379L113 379L113 373L225 373L225 337L338 337L338 313L450 313L450 301L563 301L563 319L675 319L675 367L788 367L788 349L900 349L900 307L900 191L900 191L788 191L788 197L675 197L675 161L563 161L563 239L450 239L450 227L338 227L338 191L225 191L225 209L113 209L113 179L0 179Z" fill="#e2bfe7"></path><path d="M0 451L113 451L113 439L225 439L225 397L338 397L338 415L450 415L450 391L563 391L563 403L675 403L675 433L788 433L788 451L900 451L900 415L900 305L900 347L788 347L788 365L675 365L675 317L563 317L563 299L450 299L450 311L338 311L338 335L225 335L225 371L113 371L113 377L0 377Z" fill="#cbbaee"></path><path d="M0 553L113 553L113 571L225 571L225 541L338 541L338 571L450 571L450 547L563 547L563 541L675 541L675 541L788 541L788 559L900 559L900 559L900 413L900 449L788 449L788 431L675 431L675 401L563 401L563 389L450 389L450 413L338 413L338 395L225 395L225 437L113 437L113 449L0 449Z" fill="#acb7f3"></path><path d="M0 601L113 601L113 601L225 601L225 601L338 601L338 601L450 601L450 601L563 601L563 601L675 601L675 601L788 601L788 601L900 601L900 601L900 557L900 557L788 557L788 539L675 539L675 539L563 539L563 545L450 545L450 569L338 569L338 539L225 539L225 569L113 569L113 551L0 551Z" fill="#84b6f4"></path></svg>