<svg id="visual" viewBox="0 0 900 600" width="900" height="600" xmlns="http://www.w3.org/2000/svg" xmlns:xlink="http://www.w3.org/1999/xlink" version="1.1"><path d="M0 73L82 73L82 91L164 91L164 31L245 31L245 25L327 25L327 31L409 31L409 43L491 43L491 49L573 49L573 61L655 61L655 31L736 31L736 67L818 67L818 25L900 25L900 85L900 0L900 0L818 0L818 0L736 0L736 0L655 0L655 0L573 0L573 0L491 0L491 0L409 0L409 0L327 0L327 0L245 0L245 0L164 0L164 0L82 0L82 0L0 0Z" fill="#082032"></path><path d="M0 115L82 115L82 139L164 139L164 79L245 79L245 73L327 73L327 109L409 109L409 97L491 97L491 133L573 133L573 145L655 145L655 97L736 97L736 145L818 145L818 97L900 97L900 151L900 83L900 23L818 23L818 65L736 65L736 29L655 29L655 59L573 59L573 47L491 47L491 41L409 41L409 29L327 29L327 23L245 23L245 29L164 29L164 89L82 89L82 71L0 71Z" fill="#0d1d2c"></path><path d="M0 181L82 181L82 247L164 247L164 199L245 199L245 151L327 151L327 235L409 235L409 241L491 241L491 301L573 301L573 271L655 271L655 247L736 247L736 235L818 235L818 169L900 169L900 217L900 149L900 95L818 95L818 143L736 143L736 95L655 95L655 143L573 143L573 131L491 131L491 95L409 95L409 107L327 107L327 71L245 71L245 77L164 77L164 137L82 137L82 113L0 113Z" fill="#0f1a27"></path><path d="M0 469L82 469L82 439L164 439L164 439L245 439L245 367L327 367L327 451L409 451L409 397L491 397L491 415L573 415L573 457L655 457L655 373L736 373L736 427L818 427L818 403L900 403L900 487L900 215L900 167L818 167L818 233L736 233L736 245L655 245L655 269L573 269L573 299L491 299L491 239L409 239L409 233L327 233L327 149L245 149L245 197L164 197L164 245L82 245L82 179L0 179Z" fill="#111821"></path><path d="M0 559L82 559L82 547L164 547L164 547L245 547L245 529L327 529L327 553L409 553L409 487L491 487L491 559L573 559L573 493L655 493L655 517L736 517L736 541L818 541L818 511L900 511L900 541L900 485L900 401L818 401L818 425L736 425L736 371L655 371L655 455L573 455L573 413L491 413L491 395L409 395L409 449L327 449L327 365L245 365L245 437L164 437L164 437L82 437L82 467L0 467Z" fill="#11151c"></path><path d="M0 601L82 601L82 601L164 601L164 601L245 601L245 601L327 601L327 601L409 601L409 601L491 601L491 601L573 601L573 601L655 601L655 601L736 601L736 601L818 601L818 601L900 601L900 601L900 539L900 509L818 509L818 539L736 539L736 515L655 515L655 491L573 491L573 557L491 557L491 485L409 485L409 551L327 551L327 527L245 527L245 545L164 545L164 545L82 545L82 557L0 557Z" fill="#101217"></path></svg>