<svg id="visual" viewBox="0 0 900 600" width="900" height="600" xmlns="http://www.w3.org/2000/svg" xmlns:xlink="http://www.w3.org/1999/xlink" version="1.1"><path d="M0 115L82 115L82 115L164 115L164 109L245 109L245 103L327 103L327 79L409 79L409 67L491 67L491 115L573 115L573 85L655 85L655 97L736 97L736 97L818 97L818 73L900 73L900 121L900 0L900 0L818 0L818 0L736 0L736 0L655 0L655 0L573 0L573 0L491 0L491 0L409 0L409 0L327 0L327 0L245 0L245 0L164 0L164 0L82 0L82 0L0 0Z" fill="#95b8f6"></path><path d="M0 217L82 217L82 187L164 187L164 187L245 187L245 205L327 205L327 235L409 235L409 145L491 145L491 211L573 211L573 181L655 181L655 211L736 211L736 241L818 241L818 175L900 175L900 235L900 119L900 71L818 71L818 95L736 95L736 95L655 95L655 83L573 83L573 113L491 113L491 65L409 65L409 77L327 77L327 101L245 101L245 107L164 107L164 113L82 113L82 113L0 113Z" fill="#95aef9"></path><path d="M0 271L82 271L82 253L164 253L164 235L245 235L245 301L327 301L327 319L409 319L409 205L491 205L491 283L573 283L573 259L655 259L655 313L736 313L736 283L818 283L818 247L900 247L900 331L900 233L900 173L818 173L818 239L736 239L736 209L655 209L655 179L573 179L573 209L491 209L491 143L409 143L409 233L327 233L327 203L245 203L245 185L164 185L164 185L82 185L82 215L0 215Z" fill="#9aa2f9"></path><path d="M0 439L82 439L82 481L164 481L164 397L245 397L245 463L327 463L327 421L409 421L409 415L491 415L491 433L573 433L573 475L655 475L655 487L736 487L736 391L818 391L818 427L900 427L900 487L900 329L900 245L818 245L818 281L736 281L736 311L655 311L655 257L573 257L573 281L491 281L491 203L409 203L409 317L327 317L327 299L245 299L245 233L164 233L164 251L82 251L82 269L0 269Z" fill="#a495f7"></path><path d="M0 601L82 601L82 601L164 601L164 601L245 601L245 601L327 601L327 601L409 601L409 601L491 601L491 601L573 601L573 601L655 601L655 601L736 601L736 601L818 601L818 601L900 601L900 601L900 485L900 425L818 425L818 389L736 389L736 485L655 485L655 473L573 473L573 431L491 431L491 413L409 413L409 419L327 419L327 461L245 461L245 395L164 395L164 479L82 479L82 437L0 437Z" fill="#b186f1"></path></svg>